<svg width="13" height="18" viewBox="0 0 13 18" fill="none" xmlns="http://www.w3.org/2000/svg">
<mask id="mask0_1105_21159" style="mask-type:alpha" maskUnits="userSpaceOnUse" x="0" y="0" width="13" height="18">
<rect x="0.5" width="12" height="18" fill="#D9D9D9"/>
</mask>
<g mask="url(#mask0_1105_21159)">
<path d="M2.71289 9.87988C2.71289 8.04785 3.05013 6.64876 3.72461 5.68262C4.39909 4.71647 5.37435 4.2334 6.65039 4.2334C9.08398 4.2334 10.3008 6.03353 10.3008 9.63379C10.3008 11.4066 9.97038 12.776 9.30957 13.7422C8.64876 14.7038 7.69401 15.1846 6.44531 15.1846C3.95703 15.1846 2.71289 13.4163 2.71289 9.87988ZM4.94824 9.8252C4.94824 12.2679 5.47005 13.4893 6.51367 13.4893C7.53906 13.4893 8.05176 12.2314 8.05176 9.71582C8.05176 7.19108 7.55273 5.92871 6.55469 5.92871C5.48372 5.92871 4.94824 7.22754 4.94824 9.8252Z" fill="white"/>
<path fill-rule="evenodd" clip-rule="evenodd" d="M10.1337 14.3086L10.135 14.3067C10.9542 13.109 11.3008 11.5109 11.3008 9.63379C11.3008 7.75235 10.9885 6.16539 10.2167 5.02348C9.39761 3.81176 8.15262 3.2334 6.65039 3.2334C5.07943 3.2334 3.78369 3.85102 2.90465 5.11019C2.06436 6.31385 1.71289 7.94869 1.71289 9.87988C1.71289 11.7348 2.03366 13.3047 2.82815 14.4338C3.66786 15.6273 4.9323 16.1846 6.44531 16.1846C7.99603 16.1846 9.27141 15.5634 10.1337 14.3086ZM2.71289 9.87988C2.71289 8.04785 3.05013 6.64876 3.72461 5.68262C4.39909 4.71647 5.37435 4.2334 6.65039 4.2334C9.08398 4.2334 10.3008 6.03353 10.3008 9.63379C10.3008 11.4066 9.97038 12.776 9.30957 13.7422C8.64876 14.7038 7.69401 15.1846 6.44531 15.1846C3.95703 15.1846 2.71289 13.4163 2.71289 9.87988ZM6.51367 13.4893C5.47005 13.4893 4.94824 12.2679 4.94824 9.8252C4.94824 7.22754 5.48372 5.92871 6.55469 5.92871C7.55273 5.92871 8.05176 7.19108 8.05176 9.71582C8.05176 12.2314 7.53906 13.4893 6.51367 13.4893ZM6.50506 12.4883C6.24219 12.4883 5.95361 11.5903 5.95361 9.79442C5.95361 7.8846 6.32808 6.92969 6.51951 6.92969C6.71094 6.92969 7.04688 7.8578 7.04688 9.71401C7.04688 11.5635 6.71875 12.4883 6.50506 12.4883Z" fill="#1B2C59"/>
</g>
</svg>
