<svg width="13" height="18" viewBox="0 0 13 18" fill="none" xmlns="http://www.w3.org/2000/svg">
<mask id="mask0_1105_21160" style="mask-type:alpha" maskUnits="userSpaceOnUse" x="0" y="0" width="13" height="18">
<rect x="0.5" width="12" height="18" fill="#D9D9D9"/>
</mask>
<g mask="url(#mask0_1105_21160)">
<path d="M8.12012 4.17871V15H5.89844V6.66699C5.625 6.90397 5.2513 7.11816 4.77734 7.30957C4.30339 7.49642 3.86816 7.61263 3.47168 7.6582V5.76465C4.72038 5.40007 5.80046 4.87142 6.71191 4.17871H8.12012Z" fill="white"/>
<path fill-rule="evenodd" clip-rule="evenodd" d="M8.12012 3.17871C8.6724 3.17871 9.12012 3.62643 9.12012 4.17871V15C9.12012 15.5523 8.6724 16 8.12012 16H5.89844C5.34615 16 4.89844 15.5523 4.89844 15V8.33226C4.45015 8.49251 4.01149 8.60274 3.58587 8.65166C3.30263 8.68422 3.01897 8.59433 2.80617 8.40459C2.59337 8.21485 2.47168 7.94331 2.47168 7.6582V5.76465C2.47168 5.32031 2.76488 4.92926 3.19141 4.80473C4.33858 4.46979 5.30505 3.9919 6.10683 3.38255C6.28083 3.25031 6.49336 3.17871 6.71191 3.17871H8.12012ZM4.89844 7.25924C5.31539 7.08083 5.64872 6.88341 5.89844 6.66699V15H8.12012V4.17871H6.71191C5.80046 4.87142 4.72038 5.40006 3.47168 5.76465V7.6582C3.78138 7.62261 4.11471 7.54391 4.47168 7.42211C4.57171 7.38798 4.6736 7.35047 4.77734 7.30957C4.81846 7.29296 4.85883 7.27619 4.89844 7.25924Z" fill="#1B2C59"/>
</g>
</svg>
