<svg width="13" height="18" viewBox="0 0 13 18" fill="none" xmlns="http://www.w3.org/2000/svg">
<mask id="mask0_1105_21168" style="mask-type:alpha" maskUnits="userSpaceOnUse" x="0" y="0" width="13" height="18">
<rect x="0.5" width="12" height="18" fill="#D9D9D9"/>
</mask>
<g mask="url(#mask0_1105_21168)">
<path d="M5.46094 13.1611H9.95215V15H2.91113V14.2139C2.91113 13.6624 3.01139 13.1589 3.21191 12.7031C3.41699 12.2474 3.69727 11.8236 4.05273 11.4316C4.4082 11.0352 4.95964 10.5726 5.70703 10.0439C6.39062 9.53353 6.86914 9.08236 7.14258 8.69043C7.41602 8.29395 7.55273 7.87467 7.55273 7.43262C7.55273 6.48014 7.0332 6.00391 5.99414 6.00391C5.08268 6.00391 4.21224 6.36849 3.38281 7.09766V5.12891C4.30794 4.5319 5.34701 4.2334 6.5 4.2334C7.55729 4.2334 8.39355 4.50456 9.00879 5.04688C9.62402 5.58464 9.93164 6.32747 9.93164 7.27539C9.93164 7.80404 9.84277 8.28255 9.66504 8.71094C9.4873 9.13477 9.22982 9.53353 8.89258 9.90723C8.55534 10.2809 8.0153 10.7298 7.27246 11.2539C6.55697 11.7643 6.07617 12.1585 5.83008 12.4365C5.58398 12.7145 5.46094 12.9561 5.46094 13.1611Z" fill="white"/>
<path fill-rule="evenodd" clip-rule="evenodd" d="M3.38281 5.12891C4.30794 4.5319 5.34701 4.2334 6.5 4.2334C7.55729 4.2334 8.39355 4.50456 9.00879 5.04688C9.62402 5.58464 9.93164 6.32747 9.93164 7.27539C9.93164 7.80404 9.84277 8.28255 9.66504 8.71094C9.4873 9.13477 9.22982 9.53353 8.89258 9.90723C8.55534 10.2809 8.0153 10.7298 7.27246 11.2539C6.76737 11.6142 6.37923 11.9166 6.10806 12.1611C5.99511 12.263 5.90245 12.3548 5.83008 12.4365C5.58398 12.7145 5.46094 12.9561 5.46094 13.1611H9.95215V15H2.91113V14.2139C2.91113 14.1418 2.91285 14.0705 2.91628 14C2.93907 13.5316 3.03761 13.0993 3.21191 12.7031C3.41699 12.2474 3.69727 11.8236 4.05273 11.4316C4.4082 11.0352 4.95964 10.5726 5.70703 10.0439C6.39062 9.53353 6.86914 9.08236 7.14258 8.69043C7.41602 8.29395 7.55273 7.87467 7.55273 7.43262C7.55273 6.48014 7.0332 6.00391 5.99414 6.00391C5.44198 6.00391 4.90487 6.13771 4.38281 6.40531C4.04311 6.57944 3.70977 6.81022 3.38281 7.09766V5.12891ZM6.32094 8.12041C6.48888 7.8761 6.55273 7.65297 6.55273 7.43262C6.55273 7.28276 6.532 7.19459 6.51553 7.1493C6.50163 7.11108 6.49036 7.10094 6.48763 7.09848C6.48321 7.09443 6.38004 7.00391 5.99414 7.00391C5.37464 7.00391 4.73041 7.24444 4.04307 7.8487C3.74806 8.10804 3.32854 8.17066 2.97066 8.00877C2.61277 7.84688 2.38281 7.49046 2.38281 7.09766V5.12891C2.38281 4.78926 2.55521 4.47283 2.84059 4.28867C3.93518 3.58231 5.16421 3.2334 6.5 3.2334C7.72778 3.2334 8.82305 3.5509 9.66847 4.29533C10.5356 5.05407 10.9316 6.09071 10.9316 7.27539C10.9316 7.91728 10.8234 8.52848 10.5887 9.09416L10.5872 9.09767C10.362 9.63479 10.0405 10.1278 9.63497 10.5772C9.22379 11.0328 8.61336 11.5316 7.8511 12.0695C7.80738 12.1007 7.76486 12.1312 7.72351 12.1611H9.95215C10.5044 12.1611 10.9521 12.6088 10.9521 13.1611V15C10.9521 15.5523 10.5044 16 9.95215 16H2.91113C2.35885 16 1.91113 15.5523 1.91113 15V14.2139C1.91113 13.5388 2.0345 12.8961 2.2966 12.3004L2.29996 12.2927C2.55014 11.7368 2.88925 11.2264 3.31008 10.762C3.73658 10.2868 4.35334 9.77725 5.11876 9.23518C5.76484 8.75183 6.13928 8.37988 6.32094 8.12041Z" fill="#1B2C59"/>
</g>
</svg>
