<svg width="13" height="18" viewBox="0 0 13 18" fill="none" xmlns="http://www.w3.org/2000/svg">
<mask id="mask0_1105_21169" style="mask-type:alpha" maskUnits="userSpaceOnUse" x="0" y="0" width="13" height="18">
<rect x="0.5" width="12" height="18" fill="#D9D9D9"/>
</mask>
<g mask="url(#mask0_1105_21169)">
<path d="M3.25977 12.6963C3.96615 13.2249 4.79102 13.4893 5.73438 13.4893C6.33138 13.4893 6.80534 13.3571 7.15625 13.0928C7.50716 12.8285 7.68262 12.4525 7.68262 11.9648C7.68262 11.4635 7.47298 11.0807 7.05371 10.8164C6.639 10.5521 6.05566 10.4199 5.30371 10.4199H4.36035V8.71777H5.22852C6.65039 8.71777 7.36133 8.23926 7.36133 7.28223C7.36133 6.37988 6.81673 5.92871 5.72754 5.92871C5.0166 5.92871 4.32617 6.16113 3.65625 6.62598V4.80078C4.38542 4.42253 5.24447 4.2334 6.2334 4.2334C7.236 4.2334 8.04948 4.46582 8.67383 4.93066C9.29818 5.39095 9.61035 6.03125 9.61035 6.85156C9.61035 8.23698 8.90853 9.10742 7.50488 9.46289V9.49707C8.24316 9.5791 8.83333 9.85026 9.27539 10.3105C9.71745 10.7663 9.93848 11.3223 9.93848 11.9785C9.93848 12.9857 9.56934 13.7718 8.83105 14.3369C8.09733 14.902 7.11751 15.1846 5.8916 15.1846C4.80241 15.1846 3.92513 15.0046 3.25977 14.6445V12.6963Z" fill="white"/>
<path fill-rule="evenodd" clip-rule="evenodd" d="M2.81209 11.8021C3.15062 11.6326 3.55584 11.6688 3.85894 11.8957C4.38006 12.2857 4.99113 12.4893 5.73438 12.4893C6.19119 12.4893 6.42981 12.388 6.55459 12.294C6.62456 12.2413 6.68262 12.1782 6.68262 11.9648C6.68262 11.8022 6.64516 11.741 6.52041 11.6623L6.51624 11.6597C6.32596 11.5384 5.95863 11.4199 5.30371 11.4199H4.36035C3.80807 11.4199 3.36035 10.9722 3.36035 10.4199V8.71777C3.36035 8.16549 3.80807 7.71777 4.36035 7.71777H5.22852C5.8587 7.71777 6.15576 7.60602 6.26975 7.5293C6.31371 7.49971 6.32557 7.47927 6.3319 7.46648C6.34038 7.44936 6.36133 7.39724 6.36133 7.28223C6.36133 7.15522 6.34198 7.0894 6.3315 7.06334C6.32392 7.04451 6.31938 7.0408 6.31558 7.0377C6.31536 7.03752 6.3158 7.03789 6.31558 7.0377C6.29721 7.02248 6.15899 6.92871 5.72754 6.92871C5.24926 6.92871 4.75426 7.08125 4.22633 7.44756C3.92059 7.65971 3.52233 7.68454 3.19261 7.512C2.86289 7.33947 2.65625 6.99811 2.65625 6.62598V4.80078C2.65625 4.42737 2.8643 4.08506 3.19577 3.91311C4.09343 3.44745 5.11659 3.2334 6.2334 3.2334C7.38807 3.2334 8.42851 3.50205 9.26912 4.12715C10.1646 4.78822 10.6104 5.73578 10.6104 6.85156C10.6104 7.71657 10.3884 8.51889 9.86246 9.17113C9.81288 9.23263 9.76133 9.29187 9.70792 9.34892C9.80747 9.43173 9.90325 9.52075 9.99499 9.61615C10.6235 10.265 10.9385 11.0729 10.9385 11.9785C10.9385 13.2665 10.4476 14.3583 9.44006 15.1301C8.48244 15.8671 7.26632 16.1846 5.8916 16.1846C4.70458 16.1846 3.64557 15.9903 2.78387 15.524C2.46096 15.3493 2.25977 15.0117 2.25977 14.6445V12.6963C2.25977 12.3177 2.47356 11.9716 2.81209 11.8021ZM8.83105 14.3369C9.56934 13.7718 9.93848 12.9857 9.93848 11.9785C9.93848 11.3223 9.71745 10.7663 9.27539 10.3105C9.15833 10.1887 9.03089 10.08 8.89306 9.98468C8.51249 9.72137 8.05273 9.55916 7.51379 9.49807C7.51082 9.49773 7.50785 9.4974 7.50488 9.49707V9.46289C7.50619 9.46256 7.50749 9.46223 7.50879 9.4619C8.05414 9.32329 8.49336 9.1068 8.82644 8.81242C9.34905 8.35054 9.61035 7.69692 9.61035 6.85156C9.61035 6.03125 9.29818 5.39095 8.67383 4.93066C8.04948 4.46582 7.236 4.2334 6.2334 4.2334C5.24447 4.2334 4.38542 4.42253 3.65625 4.80078V6.62598C3.98466 6.3981 4.31799 6.22608 4.65625 6.10992C5.00802 5.98911 5.36511 5.92871 5.72754 5.92871C6.81673 5.92871 7.36133 6.37988 7.36133 7.28223C7.36133 8.23926 6.65039 8.71777 5.22852 8.71777H4.36035V10.4199H5.30371C6.05566 10.4199 6.639 10.5521 7.05371 10.8164C7.47298 11.0807 7.68262 11.4635 7.68262 11.9648C7.68262 12.4525 7.50716 12.8285 7.15625 13.0928C6.80534 13.3571 6.33138 13.4893 5.73438 13.4893C5.20561 13.4893 4.71408 13.4062 4.25977 13.2401C3.90355 13.1099 3.57021 12.9286 3.25977 12.6963V14.6445C3.92513 15.0046 4.80241 15.1846 5.8916 15.1846C7.11751 15.1846 8.09733 14.902 8.83105 14.3369Z" fill="#1B2C59"/>
</g>
</svg>
