<svg width="13" height="18" viewBox="0 0 13 18" fill="none" xmlns="http://www.w3.org/2000/svg">
<mask id="mask0_1105_21170" style="mask-type:alpha" maskUnits="userSpaceOnUse" x="0" y="0" width="13" height="18">
<rect x="0.5" width="12" height="18" fill="#D9D9D9"/>
</mask>
<g mask="url(#mask0_1105_21170)">
<path d="M9.14551 4.41113V11.1377H10.6426V12.7441H9.14551V15H7.13574V12.7441H2.40527V11.124C3.38509 10.0303 4.30339 8.87272 5.16016 7.65137C6.01693 6.43001 6.66406 5.34993 7.10156 4.41113H9.14551ZM4.36035 11.1377H7.13574V7.25488C6.91699 7.66504 6.60254 8.16178 6.19238 8.74512C5.78678 9.32845 5.17611 10.126 4.36035 11.1377Z" fill="white"/>
<path fill-rule="evenodd" clip-rule="evenodd" d="M9.14551 3.41113C9.69779 3.41113 10.1455 3.85885 10.1455 4.41113V10.1377H10.6426C11.1949 10.1377 11.6426 10.5854 11.6426 11.1377V12.7441C11.6426 13.2964 11.1949 13.7441 10.6426 13.7441H10.1455V15C10.1455 15.5523 9.69779 16 9.14551 16H7.13574C6.58346 16 6.13574 15.5523 6.13574 15V13.7441H2.40527C1.85299 13.7441 1.40527 13.2964 1.40527 12.7441V11.124C1.40527 10.8778 1.49613 10.6402 1.66044 10.4568C2.61341 9.39299 3.50711 8.26653 4.3415 7.07709C5.17794 5.88471 5.79057 4.8569 6.19515 3.98873C6.35935 3.63639 6.71285 3.41113 7.10156 3.41113H9.14551ZM7.13574 12.7441V15H9.14551V12.7441H10.6426V11.1377H9.14551V4.41113H7.10156C6.66406 5.34994 6.01693 6.43001 5.16016 7.65137C4.30339 8.87272 3.38509 10.0303 2.40527 11.124V12.7441H7.13574ZM7.13574 11.1377V7.25488C6.91699 7.66504 6.60254 8.16178 6.19238 8.74512C6.17393 8.77166 6.15505 8.79865 6.13574 8.82608C5.88197 9.18665 5.55483 9.62386 5.15432 10.1377C4.91571 10.4438 4.65105 10.7772 4.36035 11.1377H7.13574Z" fill="#1B2C59"/>
</g>
</svg>
