<svg width="13" height="18" viewBox="0 0 13 18" fill="none" xmlns="http://www.w3.org/2000/svg">
<mask id="mask0_1105_21171" style="mask-type:alpha" maskUnits="userSpaceOnUse" x="0" y="0" width="13" height="18">
<rect x="0.5" width="12" height="18" fill="#D9D9D9"/>
</mask>
<g mask="url(#mask0_1105_21171)">
<path d="M3.3623 14.7266V12.8193C4.09603 13.266 4.8776 13.4893 5.70703 13.4893C6.33138 13.4893 6.81901 13.3366 7.16992 13.0312C7.52539 12.7214 7.70312 12.3044 7.70312 11.7803C7.70312 10.682 6.95117 10.1328 5.44727 10.1328C4.89128 10.1328 4.25098 10.1738 3.52637 10.2559L3.92285 4.41113H9.52832V6.22949H5.70703L5.55664 8.45801C5.9349 8.42611 6.28353 8.41016 6.60254 8.41016C7.63704 8.41016 8.4528 8.69271 9.0498 9.25781C9.65137 9.82292 9.95215 10.5885 9.95215 11.5547C9.95215 12.6211 9.58984 13.4938 8.86523 14.1729C8.14062 14.8473 7.15625 15.1846 5.91211 15.1846C4.90495 15.1846 4.05501 15.0319 3.3623 14.7266Z" fill="white"/>
<path fill-rule="evenodd" clip-rule="evenodd" d="M2.95896 15.6416C2.59633 15.4818 2.3623 15.1229 2.3623 14.7266V12.8193C2.3623 12.4579 2.55731 12.1246 2.87238 11.9476C3.18745 11.7705 3.57353 11.7772 3.88225 11.9651C4.46516 12.32 5.06774 12.4893 5.70703 12.4893C6.17306 12.4893 6.39853 12.3767 6.51318 12.2771C6.62482 12.1797 6.70312 12.0511 6.70312 11.7803C6.70312 11.4853 6.61914 11.4032 6.54939 11.3522C6.42113 11.2586 6.10713 11.1328 5.44727 11.1328C4.93833 11.1328 4.33689 11.1705 3.63886 11.2495C3.34411 11.2829 3.04976 11.1837 2.83535 10.9787C2.62093 10.7737 2.50858 10.4841 2.52866 10.1882L2.92514 4.34345C2.96075 3.81864 3.39684 3.41113 3.92285 3.41113H9.52832C10.0806 3.41113 10.5283 3.85885 10.5283 4.41113V6.22949C10.5283 6.78178 10.0806 7.22949 9.52832 7.22949H6.64182L6.62963 7.41021C7.83907 7.41518 8.9147 7.75374 9.73586 8.53026C10.5722 9.3167 10.9521 10.3644 10.9521 11.5547C10.9521 12.8747 10.4914 14.0194 9.54902 14.9025L9.54657 14.9048C8.59267 15.7927 7.34137 16.1846 5.91211 16.1846C4.80962 16.1846 3.81334 16.0182 2.95896 15.6416ZM9.0498 9.25781C8.4528 8.69271 7.63704 8.41016 6.60254 8.41016C6.58912 8.41016 6.57566 8.41018 6.56214 8.41024C6.25416 8.41153 5.91899 8.42745 5.55664 8.45801L5.70703 6.22949H9.52832V4.41113H3.92285L3.52637 10.2559C3.88295 10.2155 4.21911 10.1851 4.53486 10.1646C4.86074 10.1434 5.16488 10.1328 5.44727 10.1328C6.95117 10.1328 7.70312 10.682 7.70312 11.7803C7.70312 12.3044 7.52539 12.7214 7.16992 13.0312C6.81901 13.3366 6.33138 13.4893 5.70703 13.4893C5.24387 13.4893 4.79563 13.4196 4.3623 13.2804C4.01964 13.1702 3.68631 13.0166 3.3623 12.8193V14.7266C4.05501 15.0319 4.90495 15.1846 5.91211 15.1846C7.15625 15.1846 8.14062 14.8473 8.86523 14.1729C9.58984 13.4938 9.95215 12.6211 9.95215 11.5547C9.95215 10.5885 9.65137 9.82292 9.0498 9.25781Z" fill="#1B2C59"/>
</g>
</svg>
