<svg width="13" height="18" viewBox="0 0 13 18" fill="none" xmlns="http://www.w3.org/2000/svg">
<mask id="mask0_1105_21172" style="mask-type:alpha" maskUnits="userSpaceOnUse" x="0" y="0" width="13" height="18">
<rect x="0.5" width="12" height="18" fill="#D9D9D9"/>
</mask>
<g mask="url(#mask0_1105_21172)">
<path d="M9.56934 6.38672C9.03158 6.08138 8.44596 5.92871 7.8125 5.92871C6.99674 5.92871 6.34277 6.25 5.85059 6.89258C5.36296 7.5306 5.11914 8.35775 5.11914 9.37402H5.16016C5.66602 8.59928 6.41569 8.21191 7.40918 8.21191C8.29785 8.21191 9.00195 8.51725 9.52148 9.12793C10.0456 9.73405 10.3076 10.5247 10.3076 11.5C10.3076 12.5664 9.9681 13.4482 9.28906 14.1455C8.61003 14.8382 7.74186 15.1846 6.68457 15.1846C5.47233 15.1846 4.54264 14.7471 3.89551 13.8721C3.25293 12.9971 2.93164 11.7985 2.93164 10.2764C2.93164 8.48535 3.34863 7.03158 4.18262 5.91504C5.02116 4.79395 6.18555 4.2334 7.67578 4.2334C8.47786 4.2334 9.10905 4.3291 9.56934 4.52051V6.38672ZM5.19434 11.5205C5.19434 12.0674 5.33105 12.5322 5.60449 12.915C5.87793 13.2979 6.23796 13.4893 6.68457 13.4893C7.13574 13.4893 7.49121 13.3138 7.75098 12.9629C8.01074 12.612 8.14062 12.1722 8.14062 11.6436C8.14062 10.4541 7.65072 9.85938 6.6709 9.85938C6.22884 9.85938 5.87109 10.0166 5.59766 10.3311C5.32878 10.6455 5.19434 11.042 5.19434 11.5205Z" fill="white"/>
<path fill-rule="evenodd" clip-rule="evenodd" d="M10.0724 7.25094C9.7648 7.43004 9.38514 7.43209 9.07558 7.25632C8.69213 7.0386 8.27728 6.92871 7.8125 6.92871C7.43387 6.92871 7.13766 7.0282 6.88655 7.24209C7.0563 7.22196 7.23065 7.21191 7.40918 7.21191C8.55393 7.21191 9.54923 7.61909 10.2805 8.4769C10.9921 9.30153 11.3076 10.3404 11.3076 11.5C11.3076 12.7997 10.8846 13.9405 10.0055 14.8432L10.0032 14.8455C9.11816 15.7484 7.98382 16.1846 6.68457 16.1846C5.19685 16.1846 3.95067 15.6284 3.09151 14.4667L3.0895 14.464C2.2792 13.3606 1.93164 11.9281 1.93164 10.2764C1.93164 8.33148 2.38572 6.64968 3.38144 5.31661C4.42253 3.92472 5.89401 3.2334 7.67578 3.2334C8.53898 3.2334 9.31971 3.33369 9.9533 3.59716C10.3263 3.75227 10.5693 4.11655 10.5693 4.52051V6.38672C10.5693 6.7427 10.3801 7.07184 10.0724 7.25094ZM9.52148 9.12793C9.00195 8.51725 8.29785 8.21191 7.40918 8.21191C6.96193 8.21191 6.5641 8.29042 6.21568 8.44743C5.79311 8.63785 5.44321 8.94374 5.166 9.36511C5.16405 9.36807 5.1621 9.37105 5.16016 9.37402H5.11914C5.11914 9.36509 5.11916 9.35618 5.1192 9.34728C5.12017 9.11631 5.13383 8.89518 5.16016 8.68387C5.20117 8.35476 5.27293 8.0495 5.37544 7.7681C5.49323 7.44477 5.65161 7.15293 5.85059 6.89258C6.34277 6.25 6.99674 5.92871 7.8125 5.92871C8.07286 5.92871 8.32514 5.9545 8.56934 6.00608C8.91927 6.08 9.2526 6.20688 9.56934 6.38672V4.52051C9.10905 4.3291 8.47786 4.2334 7.67578 4.2334C6.18555 4.2334 5.02116 4.79395 4.18262 5.91504C3.34863 7.03158 2.93164 8.48535 2.93164 10.2764C2.93164 11.7985 3.25293 12.9971 3.89551 13.8721C4.54264 14.7471 5.47233 15.1846 6.68457 15.1846C7.74186 15.1846 8.61003 14.8382 9.28906 14.1455C9.9681 13.4482 10.3076 12.5664 10.3076 11.5C10.3076 10.5247 10.0456 9.73405 9.52148 9.12793ZM5.83182 10.1149C5.7991 10.1387 5.76727 10.1642 5.73633 10.1914C5.68792 10.2338 5.6417 10.2804 5.59766 10.3311C5.32878 10.6455 5.19434 11.042 5.19434 11.5205C5.19434 12.0674 5.33105 12.5322 5.60449 12.915C5.87793 13.2979 6.23796 13.4893 6.68457 13.4893C7.13574 13.4893 7.49121 13.3138 7.75098 12.9629C8.01074 12.612 8.14062 12.1722 8.14062 11.6436C8.14062 10.4541 7.65072 9.85938 6.6709 9.85938C6.34553 9.85938 6.06584 9.94455 5.83182 10.1149ZM6.35502 10.9841C6.26609 11.0894 6.19434 11.2436 6.19434 11.5205C6.19434 11.8939 6.28478 12.147 6.41823 12.3338C6.51575 12.4703 6.58069 12.4893 6.68457 12.4893C6.83123 12.4893 6.88334 12.4542 6.94723 12.3679C7.05453 12.223 7.14062 12.0042 7.14062 11.6436C7.14062 11.1609 7.03728 10.9848 7.00135 10.9412C7.00114 10.941 7.00088 10.9406 7.00055 10.9402C6.99216 10.9291 6.93942 10.8594 6.6709 10.8594C6.50053 10.8594 6.42501 10.9046 6.35502 10.9841Z" fill="#1B2C59"/>
</g>
</svg>
