<svg width="13" height="18" viewBox="0 0 13 18" fill="none" xmlns="http://www.w3.org/2000/svg">
<mask id="mask0_1105_21173" style="mask-type:alpha" maskUnits="userSpaceOnUse" x="0" y="0" width="13" height="18">
<rect x="0.5" width="12" height="18" fill="#D9D9D9"/>
</mask>
<g mask="url(#mask0_1105_21173)">
<path d="M10.2188 5.75781C9.36198 7.29362 8.72168 8.53092 8.29785 9.46973C7.87858 10.4085 7.53678 11.3223 7.27246 12.2109C7.00814 13.0996 6.80534 14.0293 6.66406 15H4.29199C4.51986 13.6191 4.9209 12.2223 5.49512 10.8096C6.07389 9.39225 6.87142 7.86556 7.8877 6.22949H2.83594V4.41113H10.2188V5.75781Z" fill="white"/>
<path fill-rule="evenodd" clip-rule="evenodd" d="M11.2188 5.75781C11.2188 5.92835 11.1751 6.09606 11.0921 6.24499C10.2415 7.76973 9.61699 8.97832 9.21006 9.87945C8.8071 10.7819 8.4814 11.654 8.23096 12.496C7.98115 13.3359 7.78837 14.2183 7.65364 15.144C7.58211 15.6355 7.16072 16 6.66406 16H4.29199C3.99832 16 3.71949 15.8709 3.52949 15.647C3.33949 15.4231 3.25752 15.1269 3.30534 14.8372C3.54631 13.3769 3.96901 11.9085 4.56872 10.433L4.56933 10.4315C4.98648 9.40999 5.50889 8.34248 6.13391 7.22949H2.83594C2.28365 7.22949 1.83594 6.78178 1.83594 6.22949V4.41113C1.83594 3.85885 2.28365 3.41113 2.83594 3.41113H10.2188C10.771 3.41113 11.2188 3.85885 11.2188 4.41113V5.75781ZM7.8877 6.22949H2.83594V4.41113H10.2188V5.75781C9.36198 7.29362 8.72168 8.53092 8.29785 9.46973C7.87858 10.4085 7.53678 11.3223 7.27246 12.2109C7.00814 13.0996 6.80534 14.0293 6.66406 15H4.29199C4.34685 14.6676 4.41173 14.3343 4.48666 14C4.72297 12.9457 5.05913 11.8822 5.49512 10.8096C5.95432 9.68506 6.55123 8.4917 7.28584 7.22949C7.47712 6.90083 7.67774 6.56749 7.8877 6.22949Z" fill="#1B2C59"/>
</g>
</svg>
