<svg width="13" height="18" viewBox="0 0 13 18" fill="none" xmlns="http://www.w3.org/2000/svg">
<mask id="mask0_1105_21174" style="mask-type:alpha" maskUnits="userSpaceOnUse" x="0" y="0" width="13" height="18">
<rect x="0.5" width="12" height="18" fill="#D9D9D9"/>
</mask>
<g mask="url(#mask0_1105_21174)">
<path d="M2.76758 12.1494C2.76758 11.5342 2.94531 10.9873 3.30078 10.5088C3.65625 10.0303 4.17122 9.67936 4.8457 9.45605C4.30794 9.18717 3.89095 8.84538 3.59473 8.43066C3.30306 8.01595 3.15723 7.55566 3.15723 7.0498C3.15723 6.52116 3.30078 6.04264 3.58789 5.61426C3.87956 5.18132 4.28516 4.84408 4.80469 4.60254C5.32422 4.35645 5.90527 4.2334 6.54785 4.2334C7.19499 4.2334 7.7806 4.35417 8.30469 4.5957C8.82878 4.83268 9.23665 5.16764 9.52832 5.60059C9.81999 6.02897 9.96582 6.50293 9.96582 7.02246C9.96582 7.51465 9.80404 7.97266 9.48047 8.39648C9.16146 8.82031 8.73079 9.15527 8.18848 9.40137C8.84928 9.62923 9.36426 9.98242 9.7334 10.4609C10.1025 10.9349 10.2871 11.4909 10.2871 12.1289C10.2871 13.0267 9.93848 13.7581 9.24121 14.3232C8.54395 14.8883 7.63932 15.1709 6.52734 15.1709C5.41536 15.1709 4.51074 14.8883 3.81348 14.3232C3.11621 13.7581 2.76758 13.0335 2.76758 12.1494ZM4.97559 11.9512C4.97559 12.4434 5.11686 12.8376 5.39941 13.1338C5.68197 13.43 6.06022 13.5781 6.53418 13.5781C6.98991 13.5781 7.36361 13.43 7.65527 13.1338C7.94694 12.8376 8.09277 12.4434 8.09277 11.9512C8.09277 11.4909 7.94466 11.1081 7.64844 10.8027C7.35221 10.4928 6.98079 10.3379 6.53418 10.3379C6.07389 10.3379 5.69792 10.4928 5.40625 10.8027C5.11914 11.1081 4.97559 11.4909 4.97559 11.9512ZM5.30371 7.27539C5.30371 7.66276 5.4222 7.99544 5.65918 8.27344C5.90072 8.54688 6.20378 8.68359 6.56836 8.68359C6.91927 8.68359 7.21777 8.54915 7.46387 8.28027C7.70996 8.01139 7.83301 7.67643 7.83301 7.27539C7.83301 6.87435 7.71224 6.53483 7.4707 6.25684C7.23372 5.97884 6.93294 5.83984 6.56836 5.83984C6.19466 5.83984 5.88932 5.97884 5.65234 6.25684C5.41992 6.53483 5.30371 6.87435 5.30371 7.27539Z" fill="white"/>
<path fill-rule="evenodd" clip-rule="evenodd" d="M7.64844 10.8027C7.35221 10.4928 6.98079 10.3379 6.53418 10.3379C6.07389 10.3379 5.69792 10.4928 5.40625 10.8027C5.11914 11.1081 4.97559 11.4909 4.97559 11.9512C4.97559 12.4434 5.11686 12.8376 5.39941 13.1338C5.68197 13.43 6.06022 13.5781 6.53418 13.5781C6.98991 13.5781 7.36361 13.43 7.65527 13.1338C7.94694 12.8376 8.09277 12.4434 8.09277 11.9512C8.09277 11.4909 7.94466 11.1081 7.64844 10.8027ZM9.24062 9.96273C8.94487 9.72838 8.59415 9.54125 8.18848 9.40137C8.57528 9.22584 8.90529 9.0051 9.17849 8.73916C9.28833 8.63224 9.38899 8.51802 9.48047 8.39648C9.80404 7.97266 9.96582 7.51465 9.96582 7.02246C9.96582 6.50293 9.81999 6.02897 9.52832 5.60059C9.23665 5.16764 8.82878 4.83268 8.30469 4.5957C7.7806 4.35417 7.19499 4.2334 6.54785 4.2334C5.90527 4.2334 5.32422 4.35645 4.80469 4.60254C4.28516 4.84408 3.87956 5.18131 3.58789 5.61426C3.30078 6.04264 3.15723 6.52116 3.15723 7.0498C3.15723 7.55566 3.30306 8.01595 3.59473 8.43066C3.68054 8.5508 3.77649 8.66482 3.88257 8.77272C4.14268 9.03729 4.46373 9.26507 4.8457 9.45605C4.43899 9.59071 4.09027 9.77177 3.79955 9.99922C3.60816 10.149 3.4419 10.3188 3.30078 10.5088C2.94531 10.9873 2.76758 11.5342 2.76758 12.1494C2.76758 13.0335 3.11621 13.7581 3.81348 14.3232C4.51074 14.8883 5.41536 15.1709 6.52734 15.1709C7.63932 15.1709 8.54395 14.8883 9.24121 14.3232C9.93848 13.7581 10.2871 13.0267 10.2871 12.1289C10.2871 11.4909 10.1025 10.9349 9.7334 10.4609C9.59088 10.2762 9.42662 10.1101 9.24062 9.96273ZM10.0185 9.30985C10.2024 9.47171 10.3714 9.65097 10.5238 9.8483C11.0375 10.5088 11.2871 11.2838 11.2871 12.1289C11.2871 13.3281 10.8025 14.3451 9.87085 15.1001C8.95616 15.8414 7.81226 16.1709 6.52734 16.1709C5.24243 16.1709 4.09852 15.8414 3.18384 15.1001C2.25642 14.3485 1.76758 13.3404 1.76758 12.1494C1.76758 11.3268 2.01014 10.5693 2.49804 9.91247C2.65785 9.69734 2.83824 9.50427 3.03688 9.33215C2.94616 9.23027 2.86075 9.12357 2.78099 9.0119L2.77674 9.00595L2.77676 9.00593C2.36692 8.42319 2.15723 7.76209 2.15723 7.0498C2.15723 6.32819 2.35681 5.65493 2.7572 5.05752L2.75853 5.05553C3.16103 4.45808 3.71333 4.00776 4.37988 3.69725C5.04734 3.38173 5.77604 3.2334 6.54785 3.2334C7.32062 3.2334 8.05042 3.37805 8.71998 3.68601C9.39319 3.99105 9.95132 4.43953 10.3563 5.03985C10.7603 5.6341 10.9658 6.30354 10.9658 7.02246C10.9658 7.75144 10.721 8.41847 10.2774 9.00051C10.196 9.10854 10.1096 9.21163 10.0185 9.30985ZM7.4707 6.25684C7.23372 5.97884 6.93294 5.83984 6.56836 5.83984C6.19466 5.83984 5.88932 5.97884 5.65234 6.25684C5.41992 6.53483 5.30371 6.87435 5.30371 7.27539C5.30371 7.66276 5.4222 7.99544 5.65918 8.27344C5.90072 8.54688 6.20378 8.68359 6.56836 8.68359C6.91927 8.68359 7.21777 8.54915 7.46387 8.28027C7.70996 8.01139 7.83301 7.67643 7.83301 7.27539C7.83301 6.87435 7.71224 6.53483 7.4707 6.25684ZM6.41427 7.61765C6.4473 7.65366 6.46913 7.66513 6.47885 7.66952C6.48909 7.67414 6.51404 7.68359 6.56836 7.68359C6.62663 7.68359 6.66123 7.6761 6.72619 7.60512C6.78607 7.5397 6.83301 7.45367 6.83301 7.27539C6.83301 7.09223 6.78474 6.99202 6.71583 6.91271L6.70965 6.9056L6.70969 6.90557C6.67528 6.86521 6.65413 6.85473 6.64789 6.85185C6.6417 6.84899 6.62047 6.83984 6.56836 6.83984C6.50808 6.83984 6.48185 6.85038 6.4734 6.85423C6.4658 6.85768 6.44664 6.86737 6.41635 6.9021C6.35221 6.98028 6.30371 7.08523 6.30371 7.27539C6.30371 7.43604 6.34493 7.53373 6.41427 7.61765ZM6.92555 11.4937L6.92556 11.4937C6.82668 11.3903 6.72057 11.3379 6.53418 11.3379C6.32455 11.3379 6.22061 11.3965 6.13445 11.4881C6.0397 11.589 5.97559 11.7185 5.97559 11.9512C5.97559 12.2415 6.05265 12.3698 6.12302 12.4436C6.18669 12.5103 6.28659 12.5781 6.53418 12.5781C6.75043 12.5781 6.85805 12.5182 6.94271 12.4322C7.01678 12.3569 7.09277 12.2326 7.09277 11.9512C7.09277 11.7274 7.03023 11.6016 6.9307 11.499L6.92555 11.4937Z" fill="#1B2C59"/>
</g>
</svg>
