<svg width="13" height="18" viewBox="0 0 13 18" fill="none" xmlns="http://www.w3.org/2000/svg">
<mask id="mask0_1105_21175" style="mask-type:alpha" maskUnits="userSpaceOnUse" x="0" y="0" width="13" height="18">
<rect x="0.5" width="12" height="18" fill="#D9D9D9"/>
</mask>
<g mask="url(#mask0_1105_21175)">
<path d="M3.36914 12.9424C3.93424 13.307 4.59961 13.4893 5.36523 13.4893C7.07422 13.4893 7.94694 12.3773 7.9834 10.1533L7.94238 10.1396C7.47754 10.8551 6.75977 11.2129 5.78906 11.2129C4.90951 11.2129 4.1849 10.9053 3.61523 10.29C3.05013 9.67025 2.76758 8.89095 2.76758 7.95215C2.76758 6.84928 3.10938 5.95378 3.79297 5.26562C4.47656 4.57747 5.36751 4.2334 6.46582 4.2334C7.6097 4.2334 8.50749 4.66862 9.15918 5.53906C9.81087 6.40951 10.1367 7.62402 10.1367 9.18262C10.1367 11.0329 9.74251 12.4958 8.9541 13.5713C8.17025 14.6468 7.04004 15.1846 5.56348 15.1846C4.72949 15.1846 3.99805 15.0501 3.36914 14.7812V12.9424ZM4.93457 7.75391C4.93457 8.31445 5.06901 8.75423 5.33789 9.07324C5.61133 9.39225 5.98275 9.55176 6.45215 9.55176C6.87142 9.55176 7.21549 9.39909 7.48438 9.09375C7.75781 8.78841 7.89453 8.41016 7.89453 7.95898C7.89453 7.41667 7.75781 6.94271 7.48438 6.53711C7.21549 6.13151 6.85319 5.92871 6.39746 5.92871C5.9554 5.92871 5.59993 6.10417 5.33105 6.45508C5.06673 6.80599 4.93457 7.23893 4.93457 7.75391Z" fill="white"/>
<path fill-rule="evenodd" clip-rule="evenodd" d="M2.89067 12.0643C3.21214 11.8891 3.60364 11.9036 3.91127 12.1021C4.29322 12.3485 4.76455 12.4893 5.36523 12.4893C5.87151 12.4893 6.18052 12.3634 6.38936 12.1734C6.19504 12.1998 5.99466 12.2129 5.78906 12.2129C4.64633 12.2129 3.6506 11.8001 2.88147 10.9694L2.87626 10.9638C2.12279 10.1374 1.76758 9.10816 1.76758 7.95215C1.76758 6.62454 2.18783 5.46253 3.08352 4.56087C3.98029 3.65812 5.13958 3.2334 6.46582 3.2334C7.90561 3.2334 9.10799 3.80215 9.95968 4.93973C10.7863 6.0438 11.1367 7.4985 11.1367 9.18262C11.1367 11.1645 10.7154 12.8594 9.76143 14.1614C8.76673 15.5255 7.31865 16.1846 5.56348 16.1846C4.62326 16.1846 3.75326 16.033 2.97603 15.7007C2.60791 15.5434 2.36914 15.1816 2.36914 14.7812V12.9424C2.36914 12.5763 2.5692 12.2394 2.89067 12.0643ZM8.9541 13.5713C9.74251 12.4958 10.1367 11.0329 10.1367 9.18262C10.1367 7.62402 9.81087 6.40951 9.15918 5.53906C8.50749 4.66862 7.6097 4.2334 6.46582 4.2334C5.36751 4.2334 4.47656 4.57747 3.79297 5.26562C3.10938 5.95378 2.76758 6.84928 2.76758 7.95215C2.76758 8.89095 3.05013 9.67025 3.61523 10.29C4.1849 10.9053 4.90951 11.2129 5.78906 11.2129C6.20975 11.2129 6.58294 11.1457 6.90861 11.0113C7.32989 10.8375 7.67168 10.5512 7.93397 10.1525C7.93679 10.1482 7.93959 10.1439 7.94238 10.1396L7.9834 10.1533C7.98333 10.1576 7.98325 10.1619 7.98318 10.1662C7.97277 10.7486 7.90478 11.2545 7.77921 11.6838C7.42715 12.8874 6.62249 13.4893 5.36523 13.4893C5.01184 13.4893 4.67981 13.4504 4.36914 13.3727C4.00674 13.2821 3.67341 13.1387 3.36914 12.9424V14.7812C3.99805 15.0501 4.72949 15.1846 5.56348 15.1846C7.04004 15.1846 8.17025 14.6468 8.9541 13.5713ZM7.48438 6.53711C7.21549 6.13151 6.85319 5.92871 6.39746 5.92871C5.9554 5.92871 5.59993 6.10417 5.33105 6.45508C5.06673 6.80599 4.93457 7.23893 4.93457 7.75391C4.93457 8.31445 5.06901 8.75423 5.33789 9.07324C5.61133 9.39225 5.98275 9.55176 6.45215 9.55176C6.87142 9.55176 7.21549 9.39909 7.48438 9.09375C7.75781 8.78841 7.89453 8.41016 7.89453 7.95898C7.89453 7.41667 7.75781 6.94271 7.48438 6.53711ZM6.10001 8.42576C6.15952 8.49411 6.23971 8.55176 6.45215 8.55176C6.59417 8.55176 6.66137 8.51522 6.73388 8.43287L6.7394 8.42661C6.83156 8.32369 6.89453 8.19076 6.89453 7.95898C6.89453 7.59333 6.80534 7.31881 6.6552 7.0961L6.65086 7.08966C6.58923 6.99669 6.54282 6.96475 6.52255 6.95341C6.50489 6.94352 6.47141 6.92871 6.39746 6.92871C6.26794 6.92871 6.20581 6.95869 6.12735 7.06002C6.01642 7.20877 5.93457 7.41973 5.93457 7.75391C5.93457 8.15531 6.02874 8.33957 6.10001 8.42576Z" fill="#1B2C59"/>
</g>
</svg>
