<svg width="13" height="18" viewBox="0 0 13 18" fill="none" xmlns="http://www.w3.org/2000/svg">
<mask id="mask0_1105_21156" style="mask-type:alpha" maskUnits="userSpaceOnUse" x="0" y="0" width="13" height="18">
<rect x="0.5" width="12" height="18" fill="#D9D9D9"/>
</mask>
<g mask="url(#mask0_1105_21156)">
<path d="M10.5127 7.43945L8.01074 11.124L10.4922 15H7.94238L6.81445 12.915C6.65951 12.6279 6.55241 12.4023 6.49316 12.2383H6.46582C6.38379 12.457 6.28125 12.6758 6.1582 12.8945L5.00977 15H2.47363L5.03027 11.2402L2.62402 7.43945H5.18066L6.30176 9.61328C6.41113 9.82292 6.51367 10.0553 6.60938 10.3105H6.63672C6.68229 10.1556 6.78711 9.9209 6.95117 9.60645L8.10645 7.43945H10.5127Z" fill="white"/>
<path fill-rule="evenodd" clip-rule="evenodd" d="M11.3964 6.97135C11.5697 7.2986 11.548 7.69485 11.34 8.00122L9.2085 11.1402L11.3344 14.4608C11.5314 14.7686 11.5449 15.1594 11.3695 15.48C11.194 15.8006 10.8577 16 10.4922 16H7.94238C7.5752 16 7.23755 15.7988 7.06284 15.4758L6.47849 14.3957L5.88766 15.4789C5.71243 15.8001 5.37571 16 5.00977 16H2.47363C2.10319 16 1.7631 15.7952 1.58981 15.4678C1.41651 15.1404 1.43841 14.744 1.64671 14.4377L3.83431 11.2206L1.77911 7.97436C1.58411 7.66634 1.57218 7.2766 1.74798 6.95722C1.92378 6.63785 2.25946 6.43945 2.62403 6.43945H5.18067C5.55494 6.43945 5.89788 6.64845 6.06943 6.98109L6.63398 8.07576L7.22402 6.96901C7.39779 6.64307 7.73708 6.43945 8.10645 6.43945H10.5127C10.883 6.43945 11.223 6.64411 11.3964 6.97135ZM6.30176 9.61328L5.18067 7.43945H2.62403L5.03028 11.2402L2.47363 15H5.00977L6.15821 12.8945C6.27911 12.6796 6.38021 12.4647 6.46152 12.2497C6.46296 12.2459 6.46439 12.2421 6.46582 12.2383H6.49317C6.49458 12.2422 6.49603 12.2462 6.4975 12.2502C6.55756 12.4132 6.66321 12.6348 6.81446 12.915L7.94238 15H10.4922L8.01074 11.124L10.5127 7.43945H8.10645L6.95117 9.60645C6.79114 9.91318 6.68747 10.144 6.64018 10.299C6.63899 10.3029 6.63784 10.3067 6.63672 10.3105H6.60938C6.60825 10.3075 6.60711 10.3045 6.60598 10.3015C6.51125 10.0498 6.40984 9.82044 6.30176 9.61328Z" fill="#1B2C59"/>
</g>
</svg>
